<?xml version="1.0" encoding="UTF-8"?>
<svg id="Layer_1" xmlns="http://www.w3.org/2000/svg" xmlns:xlink="http://www.w3.org/1999/xlink" version="1.1" viewBox="0 0 475.2 177.9">
  <!-- Generator: Adobe Illustrator 30.2.1, SVG Export Plug-In . SVG Version: 2.1.1 Build 1)  -->
  <defs>
    <style>
      .st0 {
        fill: url(#linear-gradient1);
      }

      .st1 {
        fill: url(#linear-gradient);
      }

      .st2 {
        fill: #ffffff;
      }
    </style>
    <linearGradient id="linear-gradient" x1="53.9" y1="76.1" x2="98.2" y2="76.1" gradientTransform="translate(76.1 -31.5) rotate(45)" gradientUnits="userSpaceOnUse">
      <stop offset="0" stop-color="#231f20"/>
      <stop offset="0" stop-color="#c4de91"/>
      <stop offset="0" stop-color="#37c2d7"/>
      <stop offset="0" stop-color="#3cc1cb"/>
      <stop offset=".3" stop-color="#4dc0a8"/>
      <stop offset=".6" stop-color="#59bf8e"/>
      <stop offset=".8" stop-color="#60bf7f"/>
      <stop offset="1" stop-color="#63bf7a"/>
      <stop offset="1" stop-color="#58bc6f"/>
      <stop offset="1" stop-color="#47b85e"/>
      <stop offset="1" stop-color="#3bb552"/>
      <stop offset="1" stop-color="#34b44b"/>
      <stop offset="1" stop-color="#33b44a"/>
    </linearGradient>
    <linearGradient id="linear-gradient1" x1="0" y1="89" x2="152.1" y2="89" gradientTransform="matrix(1,0,0,1,0,0)" xlink:href="#linear-gradient"/>
  </defs>
  <g>
    <path class="st2" d="M181.6,42.6h25.1c6.8,0,11.8,1.9,15.2,5.1,3.6,3.3,5.6,8.1,5.6,13.7,0,10.7-7.4,18.2-18.8,18.2h-13v18.6h-14v-55.7ZM205.8,68.7c5,0,7.8-3,7.8-7.4s-2.9-7.2-7.8-7.2h-10.2v14.6h10.2Z"/>
    <path class="st2" d="M228.9,87.1c0-8.8,7-11.4,15.3-12.5,7.5-.9,10.1-1.7,10.1-4.4s-1.6-4.3-5.5-4.3-6.1,1.8-6.5,5.1h-11.7c.3-7.4,6-13.7,18.1-13.7s10,1.1,12.9,3.3c3.4,2.5,5.1,6.4,5.1,11.4v20.1c0,3.2.3,5,1.4,5.7v.5h-12.3c-.6-.9-1-2.4-1.3-4.4h-.2c-2.3,3.3-5.8,5.5-11.8,5.5s-13.6-4.3-13.6-12.1ZM254.6,84v-4.7c-1.6.9-4,1.5-6.5,2.1-4.9,1.1-6.9,2.3-6.9,5.4s2.3,4.4,5.5,4.4c4.8,0,8-2.9,8-7.2Z"/>
    <path class="st2" d="M274.1,58.4h12.1v6.2h.2c2.8-4.8,6.1-6.9,10.9-6.9s1.9,0,2.5.3v10.9h-.3c-7.8-1.1-12.8,2.7-12.8,11.4v17.9h-12.7v-39.9Z"/>
    <path class="st2" d="M302,87.1c0-8.8,7-11.4,15.3-12.5,7.5-.9,10.1-1.7,10.1-4.4s-1.6-4.3-5.5-4.3-6.1,1.8-6.5,5.1h-11.7c.3-7.4,6-13.7,18.1-13.7s10,1.1,12.9,3.3c3.4,2.5,5.1,6.4,5.1,11.4v20.1c0,3.2.3,5,1.4,5.7v.5h-12.3c-.6-.9-1-2.4-1.3-4.4h-.2c-2.3,3.3-5.8,5.5-11.8,5.5s-13.6-4.3-13.6-12.1ZM327.7,84v-4.7c-1.6.9-4,1.5-6.5,2.1-4.9,1.1-6.9,2.3-6.9,5.4s2.3,4.4,5.5,4.4c4.8,0,8-2.9,8-7.2Z"/>
    <path class="st2" d="M345.4,78.3c0-12.5,7.2-21.1,17.4-21.1s8.8,2.3,11.1,5.7h.2v-20.3h12.7v55.7h-12.1v-5.4h-.2c-2.4,4.1-6.5,6.6-11.8,6.6-10.2,0-17.4-7.9-17.4-21.2ZM374.5,78.3c0-6.7-2.7-11.5-8.3-11.5s-8,4.7-8,11.4,3,11.3,7.9,11.3,8.4-4.6,8.4-11.1Z"/>
    <path class="st2" d="M395.5,101.5h4.4c3.7,0,5.2-1.5,5.2-4.2s-.8-4-2.4-8.3l-11.8-30.7h13.4l5.4,17c1.2,3.9,2.5,9.2,2.5,9.2h.2s1.1-5.3,2.3-9.2l5.2-17h12.7l-13.8,40.4c-3.2,9.3-7,12.6-15,12.6h-8.3v-9.9Z"/>
    <path class="st2" d="M436.5,58.4h12.2v5.5h.2c3-4.3,6.8-6.6,12.3-6.6,8.7,0,13.9,6.2,13.9,15.1v25.9h-12.7v-23.4c0-4.2-2.1-7.1-6.2-7.1s-7,3.5-7,8.4v22h-12.7v-39.9Z"/>
  </g>
  <g>
    <circle class="st1" cx="76.1" cy="76.1" r="22.2" transform="translate(-31.5 76.1) rotate(-45)"/>
    <path class="st0" d="M76.1,0C34.1,0,0,34.1,0,76.1v101.9c12.4-14.5,41.5-24.9,75.9-25.8h.2c42,0,76.1-34.1,76.1-76.1S118.1,0,76.1,0ZM76.1,121.7h-.1c-11,.3-21.1,0-29.3,1-.4,0-.9.1-1.3.2-.2,0-.4,0-.6,0-.2,0-.5,0-.7.1-.2,0-.4,0-.6.1-.2,0-.5,0-.7.1-.2,0-.4,0-.6.1-.2,0-.4,0-.7.1-.2,0-.4,0-.6.1-.2,0-.4.1-.6.2-.2,0-.4.1-.6.2-.2,0-.4.1-.6.2-.2,0-.4.1-.5.2-.2,0-.4.1-.6.2-.2,0-.3.1-.5.2-.2,0-.4.1-.6.2-.2,0-.3.1-.5.2-.2,0-.4.2-.5.2-.2,0-.3.1-.5.2-.2,0-.4.2-.5.3-.1,0-.3.2-.4.2-.2,0-.3.2-.5.3-.1,0-.3.2-.4.3-.2.1-.3.2-.5.3-.1,0-.2.2-.4.3-.2.1-.3.3-.5.4-.1,0-.2.2-.3.3-.2.2-.3.3-.5.5,0,0-.2.2-.3.2-.2.2-.5.5-.7.8v-53.5c0-25.2,20.5-45.7,45.7-45.7s45.7,20.5,45.7,45.7-20.5,45.7-45.7,45.7Z"/>
  </g>
  <g>
    <path class="st2" d="M182.4,137.5h2.1c.3,2.9,2,4.4,5.2,4.4s4-1.1,4-3.2-2-2.9-5.1-3.5c-3-.7-5.5-1.5-5.5-4.7s2.3-4.5,5.8-4.5,6,2.2,6.4,5.3h-2c-.3-2.4-1.9-3.6-4.4-3.6s-3.8,1-3.8,2.7,1.9,2.5,4.4,3c3.3.7,6.3,1.5,6.3,5.3s-2.6,4.9-6.2,4.9-7-2.7-7.2-6.1Z"/>
    <path class="st2" d="M199.1,131h1.9v1.8h0c.8-1.2,2.1-2,3.6-2s2.7.8,3.2,2.2h0c.8-1.4,2.2-2.2,3.7-2.2,2.2,0,3.7,1.4,3.7,3.9v8.6h-1.9v-8.5c0-1.5-1-2.4-2.2-2.4s-3,1.4-3,3.3v7.6h-1.9v-8.5c0-1.5-.9-2.4-2.1-2.4s-3.1,1.4-3.1,3.3v7.6h-1.9v-12.2Z"/>
    <path class="st2" d="M226.6,141.6h0c-.7.9-2,1.9-4.1,1.9s-4.1-1.1-4.1-3.4,2.3-3.5,5.3-4c1.7-.3,2.9-.4,2.9-1.8s-1-2.2-2.7-2.2-3,.9-3.1,2.7h-1.8c0-2.4,1.6-4.1,4.9-4.1s4.5,1,4.5,3.9v5.8c0,1,.2,1.5,1.3,1.3h0v1.4c-.2,0-.5.2-1,.2-1.3,0-1.9-.6-2.1-1.8ZM226.6,138.7v-2.1c-.6.4-1.8.7-2.8.9-1.9.4-3.5.7-3.5,2.5s1.3,2,2.5,2c2.6,0,3.7-1.9,3.7-3.3Z"/>
    <path class="st2" d="M234.2,133h0c.7-1.2,2-2.2,3.6-2.2s.5,0,.8.1v1.8h0c-.3,0-.5-.1-.9-.1-1.9,0-3.6,1.4-3.6,3.7v6.8h-1.9v-12.2h1.9v2Z"/>
    <path class="st2" d="M240.7,131h1.8v-3.9h1.9v3.9h2.4v1.6h-2.4v8c0,.9.5,1.1,1.2,1.1s.8,0,1-.2h0v1.7c-.4,0-1,.2-1.5.2-1.6,0-2.7-.6-2.7-2.4v-8.4h-1.8v-1.6Z"/>
    <path class="st2" d="M255.1,126.3h7.2c1.8,0,3.1.5,4.1,1.5.7.7,1.1,1.7,1.1,2.9,0,1.9-1,3-2.7,3.6h0c1.9.5,3.4,1.9,3.4,4.2s-.5,2.4-1.2,3.2c-.9,1-2.4,1.6-4.2,1.6h-7.6v-16.9ZM262,133.6c2.1,0,3.3-1,3.3-2.8s-1.1-2.6-3-2.6h-5.1v5.4h4.8ZM262.6,141.3c1.2,0,2.1-.3,2.7-.9.5-.5.8-1.2.8-2,0-2.1-1.5-3.1-3.6-3.1h-5.2v6h5.3Z"/>
    <path class="st2" d="M279,143.3v-1.7h0c-.9,1.2-1.9,2-3.7,2s-4.1-1.5-4.1-4v-8.5h1.9v8.4c0,1.6,1,2.5,2.7,2.5s3.2-1.5,3.2-3.4v-7.5h1.9v12.2h-1.9Z"/>
    <path class="st2" d="M283.9,139.3h2c.3,2.1,1.7,2.7,3.5,2.7s2.8-.9,2.8-2-.9-1.7-3.2-2.2c-2.4-.5-4.6-1-4.6-3.7s1.6-3.4,4.4-3.4,4.5,1.4,4.8,3.8h-2c-.2-1.6-1.1-2.3-2.9-2.3s-2.5.8-2.5,1.8,1.2,1.6,3.3,2c2.5.5,4.5,1,4.5,3.9s-2,3.7-4.8,3.7-5.2-1.6-5.4-4.3Z"/>
    <path class="st2" d="M297.1,126.3h1.9v2.4h-1.9v-2.4ZM297.1,131h1.9v12.2h-1.9v-12.2Z"/>
    <path class="st2" d="M304.7,132.6h0c.9-1.2,2.1-1.9,3.9-1.9,2.6,0,4.1,1.4,4.1,3.9v8.6h-1.9v-8.4c0-1.6-1-2.5-2.8-2.5s-3.4,1.4-3.4,3.4v7.5h-1.9v-12.2h1.9v1.6Z"/>
    <path class="st2" d="M315.8,137.1c0-3.6,2.3-6.4,5.8-6.4s5.6,2.8,5.6,6.9h-9.5c.1,2.5,1.5,4.4,4,4.4s3-.9,3.4-2.5h1.9c-.6,2.6-2.5,4.1-5.3,4.1s-5.9-2.9-5.9-6.4ZM317.8,136.2h7.4c-.1-2.4-1.4-3.9-3.6-3.9s-3.5,1.7-3.8,3.9Z"/>
    <path class="st2" d="M329.4,139.3h2c.3,2.1,1.7,2.7,3.5,2.7s2.8-.9,2.8-2-.9-1.7-3.2-2.2c-2.4-.5-4.6-1-4.6-3.7s1.6-3.4,4.4-3.4,4.5,1.4,4.8,3.8h-2c-.2-1.6-1.1-2.3-2.9-2.3s-2.5.8-2.5,1.8,1.2,1.6,3.3,2c2.5.5,4.5,1,4.5,3.9s-2,3.7-4.8,3.7-5.2-1.6-5.4-4.3Z"/>
    <path class="st2" d="M341.9,139.3h2c.3,2.1,1.7,2.7,3.5,2.7s2.8-.9,2.8-2-.9-1.7-3.2-2.2c-2.4-.5-4.6-1-4.6-3.7s1.6-3.4,4.4-3.4,4.5,1.4,4.8,3.8h-2c-.2-1.6-1.1-2.3-2.9-2.3s-2.5.8-2.5,1.8,1.2,1.6,3.3,2c2.5.5,4.5,1,4.5,3.9s-2,3.7-4.8,3.7-5.2-1.6-5.4-4.3Z"/>
    <path class="st2" d="M354.9,140.9h2.3v2.3h-2.3v-2.3Z"/>
    <path class="st2" d="M364.8,137.5h2.1c.3,2.9,2,4.4,5.2,4.4s4-1.1,4-3.2-2-2.9-5.1-3.5c-3-.7-5.5-1.5-5.5-4.7s2.3-4.5,5.8-4.5,6,2.2,6.4,5.3h-2c-.3-2.4-1.9-3.6-4.4-3.6s-3.8,1-3.8,2.7,1.9,2.5,4.4,3c3.3.7,6.3,1.5,6.3,5.3s-2.6,4.9-6.2,4.9-7-2.7-7.2-6.1Z"/>
    <path class="st2" d="M381.5,126.3h1.9v2.4h-1.9v-2.4ZM381.5,131h1.9v12.2h-1.9v-12.2Z"/>
    <path class="st2" d="M387.2,131h1.9v1.8h0c.8-1.2,2.1-2,3.6-2s2.7.8,3.2,2.2h0c.8-1.4,2.2-2.2,3.7-2.2,2.2,0,3.7,1.4,3.7,3.9v8.6h-1.9v-8.5c0-1.5-1-2.4-2.2-2.4s-3,1.4-3,3.3v7.6h-1.9v-8.5c0-1.5-.9-2.4-2.1-2.4s-3.1,1.4-3.1,3.3v7.6h-1.9v-12.2Z"/>
    <path class="st2" d="M407.1,131h1.9v1.7h0c.9-1.3,2.2-2,3.9-2,3.1,0,5.3,2.4,5.3,6.4s-2,6.4-5.3,6.4-2.8-.5-3.9-1.8h0v5.4h-1.9v-16.2ZM416.3,137.2c0-2.7-1.2-4.8-3.5-4.8s-3.9,2.2-3.9,4.8,1.1,4.8,3.9,4.8,3.5-2,3.5-4.8Z"/>
    <path class="st2" d="M421.4,126.3h1.9v16.9h-1.9v-16.9Z"/>
    <path class="st2" d="M427.1,126.3h1.9v2.4h-1.9v-2.4ZM427.1,131h1.9v12.2h-1.9v-12.2Z"/>
    <path class="st2" d="M432,131h1.7v-2c0-2.1,1.2-2.9,3.2-2.9s.7,0,1,0v1.6c-.3,0-.4,0-.6,0-1.2,0-1.7.3-1.7,1.3v1.9h2.3v1.6h-2.3v10.7h-1.9v-10.7h-1.7v-1.6ZM439.5,126.3h1.9v2.4h-1.9v-2.4ZM439.5,131h1.9v12.2h-1.9v-12.2Z"/>
    <path class="st2" d="M444.5,137.1c0-3.6,2.3-6.4,5.8-6.4s5.6,2.8,5.6,6.9h-9.5c.1,2.5,1.5,4.4,4,4.4s3-.9,3.4-2.5h1.9c-.6,2.6-2.5,4.1-5.3,4.1s-5.9-2.9-5.9-6.4ZM446.5,136.2h7.4c-.1-2.4-1.4-3.9-3.6-3.9s-3.5,1.7-3.8,3.9Z"/>
    <path class="st2" d="M458.2,137.2c0-4.1,2.3-6.4,5.4-6.4s3.1.9,3.8,2h0v-6.4h1.9v16.9h-1.9v-1.5h0c-.9,1.2-2.1,1.8-3.8,1.8-3.3,0-5.4-2.5-5.4-6.4ZM467.6,137.2c0-2.8-1.4-4.8-3.9-4.8s-3.5,2.1-3.5,4.8,1.2,4.8,3.5,4.8,3.9-2,3.9-4.8Z"/>
    <path class="st2" d="M472.9,140.9h2.3v2.3h-2.3v-2.3Z"/>
  </g>
</svg>