<?xml version="1.0" encoding="UTF-8"?>
<svg id="Layer_1" xmlns="http://www.w3.org/2000/svg" xmlns:xlink="http://www.w3.org/1999/xlink" version="1.1" viewBox="56.9 301.1 475.1 178">
  <!-- Generator: Adobe Illustrator 30.2.1, SVG Export Plug-In . SVG Version: 2.1.1 Build 1)  -->
  <defs>
    <style>
      .st0 {
        fill: url(#linear-gradient1);
      }

      .st1 {
        fill: url(#linear-gradient);
      }

      .st2 {
        fill: #ffffff;
      }
    </style>
    <linearGradient id="linear-gradient" x1="110.8" y1="377.2" x2="155.2" y2="377.2" gradientTransform="translate(305.7 16.4) rotate(45)" gradientUnits="userSpaceOnUse">
      <stop offset="0" stop-color="#231f20"/>
      <stop offset="0" stop-color="#c4de91"/>
      <stop offset="0" stop-color="#37c2d7"/>
      <stop offset="0" stop-color="#3cc1cb"/>
      <stop offset=".3" stop-color="#4dc0a8"/>
      <stop offset=".6" stop-color="#59bf8e"/>
      <stop offset=".8" stop-color="#60bf7f"/>
      <stop offset="1" stop-color="#63bf7a"/>
      <stop offset="1" stop-color="#58bc6f"/>
      <stop offset="1" stop-color="#47b85e"/>
      <stop offset="1" stop-color="#3bb552"/>
      <stop offset="1" stop-color="#34b44b"/>
      <stop offset="1" stop-color="#33b44a"/>
    </linearGradient>
    <linearGradient id="linear-gradient1" x1="56.9" y1="390.1" x2="209" y2="390.1" gradientTransform="matrix(1,0,0,1,0,0)" xlink:href="#linear-gradient"/>
  </defs>
  <g>
    <path class="st2" d="M238.5,355.7h25.1c6.8,0,11.8,1.9,15.2,5.1,3.6,3.3,5.6,8.1,5.6,13.7,0,10.7-7.4,18.2-18.8,18.2h-13v18.6h-14v-55.7ZM262.7,381.8c5,0,7.8-3,7.8-7.4s-2.9-7.2-7.8-7.2h-10.2v14.6h10.2Z"/>
    <path class="st2" d="M285.8,400.2c0-8.8,7-11.4,15.3-12.5,7.5-.9,10.1-1.7,10.1-4.4s-1.6-4.3-5.5-4.3-6.1,1.8-6.5,5.1h-11.7c.3-7.4,6-13.7,18.1-13.7s10,1.1,12.9,3.3c3.4,2.5,5.1,6.4,5.1,11.4v20.1c0,3.2.3,5,1.4,5.7v.5h-12.3c-.6-.9-1-2.4-1.3-4.4h-.2c-2.3,3.3-5.8,5.5-11.8,5.5s-13.6-4.3-13.6-12.1ZM311.5,397.1v-4.7c-1.6.9-4,1.5-6.5,2.1-4.9,1.1-6.9,2.3-6.9,5.4s2.3,4.4,5.5,4.4c4.8,0,8-2.9,8-7.2Z"/>
    <path class="st2" d="M331,371.5h12.1v6.2h.2c2.8-4.8,6.1-6.9,10.9-6.9s1.9,0,2.5.3v10.9h-.3c-7.8-1.1-12.8,2.7-12.8,11.4v17.9h-12.7v-39.9Z"/>
    <path class="st2" d="M359,400.2c0-8.8,7-11.4,15.3-12.5,7.5-.9,10.1-1.7,10.1-4.4s-1.6-4.3-5.5-4.3-6.1,1.8-6.5,5.1h-11.7c.3-7.4,6-13.7,18.1-13.7s10,1.1,12.9,3.3c3.4,2.5,5.1,6.4,5.1,11.4v20.1c0,3.2.3,5,1.4,5.7v.5h-12.3c-.6-.9-1-2.4-1.3-4.4h-.2c-2.3,3.3-5.8,5.5-11.8,5.5s-13.6-4.3-13.6-12.1ZM384.7,397.1v-4.7c-1.6.9-4,1.5-6.5,2.1-4.9,1.1-6.9,2.3-6.9,5.4s2.3,4.4,5.5,4.4c4.8,0,8-2.9,8-7.2Z"/>
    <path class="st2" d="M402.3,391.4c0-12.5,7.2-21.1,17.4-21.1s8.8,2.3,11.1,5.7h.2v-20.3h12.7v55.7h-12.1v-5.4h-.2c-2.4,4.1-6.5,6.6-11.8,6.6-10.2,0-17.4-7.9-17.4-21.2ZM431.4,391.4c0-6.7-2.7-11.5-8.3-11.5s-8,4.7-8,11.4,3,11.3,7.9,11.3,8.4-4.6,8.4-11.1Z"/>
    <path class="st2" d="M452.4,414.6h4.4c3.7,0,5.2-1.5,5.2-4.2s-.8-4-2.4-8.3l-11.8-30.7h13.4l5.4,17c1.2,3.9,2.5,9.2,2.5,9.2h.2s1.1-5.3,2.3-9.2l5.2-17h12.7l-13.8,40.4c-3.2,9.3-7,12.6-15,12.6h-8.3v-9.9Z"/>
    <path class="st2" d="M493.4,371.5h12.2v5.5h.2c3-4.3,6.8-6.6,12.3-6.6,8.7,0,13.9,6.2,13.9,15.1v25.9h-12.7v-23.4c0-4.2-2.1-7.1-6.2-7.1s-7,3.5-7,8.4v22h-12.7v-39.9Z"/>
  </g>
  <g>
    <circle class="st1" cx="133" cy="377.2" r="22.2" transform="translate(-227.8 204.5) rotate(-45)"/>
    <path class="st0" d="M133,301.1c-42,0-76.1,34.1-76.1,76.1v101.9c12.4-14.5,41.5-24.9,75.9-25.8h.2c42,0,76.1-34.1,76.1-76.1s-34.1-76.1-76.1-76.1ZM133,422.9h-.1c-11,.3-21.1,0-29.3,1-.4,0-.9.1-1.3.2-.2,0-.4,0-.6,0-.2,0-.5,0-.7.1-.2,0-.4,0-.6.1-.2,0-.5,0-.7.1-.2,0-.4,0-.6.1-.2,0-.4,0-.7.1-.2,0-.4,0-.6.1-.2,0-.4.1-.6.2-.2,0-.4.1-.6.2-.2,0-.4.1-.6.2-.2,0-.4.1-.5.2-.2,0-.4.1-.6.2-.2,0-.3.1-.5.2-.2,0-.4.1-.6.2-.2,0-.3.1-.5.2-.2,0-.4.2-.5.2-.2,0-.3.1-.5.2-.2,0-.4.2-.5.3-.1,0-.3.2-.4.2-.2,0-.3.2-.5.3-.1,0-.3.2-.4.3-.2.1-.3.2-.5.3-.1,0-.2.2-.4.3-.2.1-.3.3-.5.4-.1,0-.2.2-.3.3-.2.2-.3.3-.5.5,0,0-.2.2-.3.2-.2.2-.5.5-.7.8v-53.5c0-25.2,20.5-45.7,45.7-45.7s45.7,20.5,45.7,45.7-20.5,45.7-45.7,45.7Z"/>
  </g>
</svg>